<svg width="33" height="31" viewBox="0 0 33 31" fill="none" xmlns="http://www.w3.org/2000/svg">
<path d="M32.9062 6.75002V7.84377C32.9062 7.98881 32.8486 8.12791 32.7461 8.23047C32.6435 8.33303 32.5044 8.39064 32.3594 8.39064H30.7188V9.21096C30.7188 9.66397 30.3515 10.0313 29.8984 10.0313H3.10156C2.64855 10.0313 2.28125 9.66397 2.28125 9.21096V8.39064H0.640625C0.495585 8.39064 0.356485 8.33303 0.253926 8.23047C0.151367 8.12791 0.09375 7.98881 0.09375 7.84377V6.75002C0.0937508 6.64183 0.125843 6.53607 0.185967 6.44612C0.246091 6.35617 0.331543 6.28608 0.431514 6.24471L16.2909 0.229081C16.4248 0.17364 16.5752 0.17364 16.7091 0.229081L32.5685 6.24471C32.6685 6.28608 32.7539 6.35617 32.814 6.44612C32.8742 6.53607 32.9062 6.64183 32.9062 6.75002ZM31.2656 27.5313H1.73438C0.828271 27.5313 0.09375 28.2658 0.09375 29.1719V30.2656C0.09375 30.4107 0.151367 30.5498 0.253926 30.6523C0.356485 30.7549 0.495585 30.8125 0.640625 30.8125H32.3594C32.5044 30.8125 32.6435 30.7549 32.7461 30.6523C32.8486 30.5498 32.9062 30.4107 32.9062 30.2656V29.1719C32.9062 28.2658 32.1717 27.5313 31.2656 27.5313ZM5.5625 11.125V24.25H3.10156C2.64855 24.25 2.28125 24.6173 2.28125 25.0703V26.4375H30.7188V25.0703C30.7188 24.6173 30.3515 24.25 29.8984 24.25H27.4375V11.125H23.0625V24.25H18.6875V11.125H14.3125V24.25H9.9375V11.125H5.5625Z" fill="white"/>
</svg>
